<svg xmlns="http://www.w3.org/2000/svg" viewBox="0 0 512 512">
  <!-- Marca do Lidera+: pino de mapa em azul-escuro com uma pequena rede de
       lideranças dentro, seta verde de crescimento e um "+" dourado.
       Cores batem com tailwind.config.ts: primary #0B2545, secondary
       #1E7A46, accent #D4A017. -->
  <path d="M256 24C155.6 24 74 105.6 74 206c0 132 182 282 182 282s182-150 182-282C438 105.6 356.4 24 256 24z" fill="#0B2545" />
  <g stroke="#FFFFFF" stroke-width="7" fill="none">
    <line x1="256" y1="158" x2="210" y2="222" />
    <line x1="256" y1="158" x2="302" y2="222" />
    <line x1="210" y1="222" x2="302" y2="222" />
  </g>
  <circle cx="256" cy="158" r="17" fill="#1E7A46" />
  <circle cx="210" cy="222" r="15" fill="#FFFFFF" />
  <circle cx="302" cy="222" r="15" fill="#FFFFFF" />
  <g fill="#1E7A46">
    <line x1="135" y1="445" x2="255" y2="325" stroke="#1E7A46" stroke-width="26" stroke-linecap="square" />
    <polygon points="239.5,309.5 270.5,340.5 286.8,293.2" />
  </g>
  <path d="M330 50h30v30h30v30h-30v30h-30v-30h-30v-30h30z" fill="#D4A017" />
</svg>
